<svg class="ldi-154nhf" width="100%" height="100%" xmlns="http://www.w3.org/2000/svg" xmlns:xlink="http://www.w3.org/1999/xlink" viewBox="0 0 100 100" preserveAspectRatio="xMidYMid"><!--?xml version="1.0" encoding="utf-8"?--><!--Generator: Adobe Illustrator 21.0.0, SVG Export Plug-In . SVG Version: 6.00 Build 0)--><svg version="1.1" id="Layer_1" xmlns="http://www.w3.org/2000/svg" xmlns:xlink="http://www.w3.org/1999/xlink" x="0px" y="0px" viewBox="0 0 100 100" style="transform-origin: 50px 50px 0px;" xml:space="preserve"><g style="transform-origin: 50px 50px 0px;"><g fill="rgb(0, 0, 0)" style="fill: rgb(0, 0, 0); transform-origin: 50px 50px 0px; transform: scale(0.6);"><g style="transform-origin: 50px 50px 0px;"><g fill="rgb(0, 0, 0)" style="fill: rgb(0, 0, 0);"><style type="text/css" class="ld ld-breath" style="transform-origin: 50px 50px 0px; animation-duration: 1s; animation-delay: -1s; animation-direction: normal;">.st0{fill:#040000;} .st1{fill:#050000;} .st2{fill:#E74F0C;} .st3{fill:#4D494C;} .st4{fill:#E72E11;} .st5{fill:#241C1D;}</style><g class="ld ld-breath" style="transform-origin: 50px 50px 0px; animation-duration: 1s; animation-delay: -0.909091s; animation-direction: normal;"><path class="st0" d="M64.883,43.18c2.45-6.665,4.37-12.17,5.74-16.515c1.365-4.335,2.06-7,2.06-8c0-1.05-0.235-1.88-0.7-2.46 c-0.45-0.58-1.08-0.88-1.89-0.88c-1.03,0-2.075,0.85-3.13,2.55c-1.065,1.7-2.235,4.45-3.525,8.225l-5.48,15.865l6.93,1.21h-0.015 L64.883,43.18z M57.573,57.965c-1.58-0.08-3.075-0.25-4.48-0.5c-1.4-0.25-2.76-0.625-4.05-1.1c0.59,1.175,1.115,2.35,1.57,3.515 c0.46,1.175,0.835,2.325,1.13,3.46c0.875-1.1,1.8-2.1,2.77-3c0.975-0.89,2-1.685,3.05-2.375L57.573,57.965z M51.363,41.315 l-5.935-17.15c-1.54-4.35-2.73-7.2-3.58-8.55c-0.835-1.33-1.75-1.99-2.74-1.99c-0.765,0-1.39,0.29-1.865,0.875 c-0.48,0.6-0.715,1.38-0.715,2.36c0,1.69,0.65,4.62,1.925,8.8c1.28,4.175,3.2,9.65,5.765,16.425c0.22-0.4,0.53-0.685,0.935-0.85 c0.405-0.165,0.95-0.25,1.65-0.25c0.215,0,0.65,0.025,1.32,0.05c0.65,0.05,1.735,0.125,3.235,0.28L51.363,41.315z M45.973,67.85 c0.625,0,1.2-0.28,1.7-0.85c0.5-0.58,0.78-1.175,0.78-1.84c0-0.7-0.5-2.32-1.51-4.86c-1-2.54-2.265-5.04-3.765-7.5 c-1.1-1.83-2.185-3.22-3.235-4.15c-1.075-0.93-2.08-1.4-3.025-1.4c-0.77,0-1.62,0.49-2.56,1.465c-0.935,0.965-1.4,1.875-1.4,2.715 c0,0.88,0.465,2.2,1.375,3.95c0.92,1.77,2.15,3.635,3.68,5.61c1.62,2.16,3.14,3.85,4.57,5.05c1.425,1.21,2.565,1.815,3.4,1.815 L45.973,67.85z M29.488,66.54c0.52,0.625,1.23,1.535,2.15,2.75c2.41,3.325,4.65,5,6.7,5c0.7,0,1.325-0.225,1.875-0.66 c0.55-0.44,0.825-0.9,0.825-1.375c0-0.55-0.37-1.46-1.1-2.75c-0.74-1.28-1.75-2.725-3.025-4.335c-1.465-1.865-2.685-3.23-3.66-4.09 c-0.96-0.86-1.75-1.3-2.325-1.3c-1.285,0-2.465,0.7-3.55,2.07c-1.08,1.35-1.62,3-1.62,4.86c0,1.51,0.385,3.185,1.14,5.035 c0.755,1.85,1.835,3.69,3.26,5.565c2.165,2.89,4.85,5.115,8.05,6.68c3.2,1.55,6.75,2.33,10.63,2.33c7.14,0,13.12-2.67,17.93-8 c4.825-5.325,7.23-12,7.23-20.03c0-2.45-0.185-4.41-0.55-5.85c-0.37-1.45-0.965-2.5-1.815-3.165c-1.5-1.25-4.425-2.36-8.77-3.35 c-4.335-0.99-8.865-1.485-13.6-1.485c-1.31,0-2.25,0.22-2.8,0.66c-0.55,0.44-0.815,1.19-0.815,2.25c0,2.5,1.385,4.3,4.175,5.415 c2.78,1.12,7.29,1.68,13.51,1.68h2.25c0.52,0,0.935,0.2,1.25,0.585c0.3,0.38,0.515,0.95,0.62,1.73c-0.625,0.585-1.9,1.25-3.85,2 c-1.95,0.75-3.42,1.5-4.45,2.225c-2.2,1.61-3.96,3.525-5.3,5.74c-1.34,2.215-2,4.315-2,6.29c0,1.215,0.28,2.67,0.85,4.37 c0.565,1.7,0.85,2.75,0.85,3.16v0.38l-0.115,0.5c-1.6-0.1-2.87-1.05-3.8-2.825c-0.95-1.775-1.4-4.15-1.4-7.11v-0.5 c-0.3,0.25-0.58,0.45-0.86,0.55c-0.275,0.11-0.58,0.16-0.9,0.16c-0.335,0-0.65-0.02-0.95-0.08c-0.3-0.05-0.615-0.135-0.975-0.25 c0.1,0.4,0.185,0.8,0.25,1.185c0.05,0.4,0.075,0.7,0.075,0.915c0,1.35-0.525,2.52-1.59,3.5c-1.065,0.96-2.335,1.45-3.8,1.45 c-2.3,0-4.65-1.135-7.03-3.38c-2.385-2.25-3.57-4.465-3.57-6.62c0-0.4,0.05-0.76,0.135-1.075c0.085-0.315,0.25-0.575,0.46-0.8h0.015 L29.488,66.54z M68.848,44.115c3.285,0.625,5.615,2.015,6.965,4.18c1.365,2.15,2.04,5.55,2.04,10.21c0,9.23-2.77,16.785-8.315,22.66 C63.983,87.05,56.883,90,48.248,90c-3.41,0-6.72-0.62-9.92-1.85c-3.21-1.22-5.96-2.94-8.27-5.135c-2.63-2.41-4.61-4.97-5.935-7.665 c-1.31-2.685-1.975-5.45-1.975-8.26c0-3.15,0.665-5.58,2.025-7.3c1.35-1.735,3.5-2.9,6.43-3.52c-0.55-1.29-0.95-2.365-1.2-3.25 c-0.26-0.875-0.385-1.56-0.385-2.03c0-1.65,0.87-3.34,2.6-5.05c1.75-1.73,3.39-2.6,4.925-2.6c0.65,0,1.35,0.125,2.085,0.36 c0.73,0.25,1.58,0.64,2.525,1.19c-2.82-7.99-4.87-14.15-6.155-18.49c-1.28-4.35-1.925-7.335-1.925-8.99 c0-2.27,0.585-4.075,1.765-5.41c1.165-1.33,2.77-2,4.78-2c3.44,0,7.8,7.7,13.075,23.08c0.91,2.64,1.6,4.67,2.085,6.1l1.7-4.84 c5.29-15.24,9.82-22.85,13.63-22.85c1.875,0,3.37,0.63,4.485,1.9s1.67,2.95,1.67,5.075c0,1.615-0.61,4.56-1.84,8.85 c-1.225,4.285-3.08,9.89-5.57,16.815" fill="rgb(4, 0, 0)" style="fill: rgb(4, 0, 0);"></path></g><metadata xmlns:d="https://loading.io/stock/" class="ld ld-breath" style="transform-origin: 50px 50px 0px; animation-duration: 1s; animation-delay: -0.818182s; animation-direction: normal;">
<d:name class="ld ld-breath" style="transform-origin: 50px 50px 0px; animation-duration: 1s; animation-delay: -0.727273s; animation-direction: normal;">angellist</d:name>
<d:tags class="ld ld-breath" style="transform-origin: 50px 50px 0px; animation-duration: 1s; animation-delay: -0.636364s; animation-direction: normal;">angellist,brand wb</d:tags>
<d:license class="ld ld-breath" style="transform-origin: 50px 50px 0px; animation-duration: 1s; animation-delay: -0.545455s; animation-direction: normal;">cc0</d:license>
<d:slug class="ld ld-breath" style="transform-origin: 50px 50px 0px; animation-duration: 1s; animation-delay: -0.454545s; animation-direction: normal;">154nhf</d:slug>
</metadata></g></g></g></g><style type="text/css" class="ld ld-breath" style="transform-origin: 50px 50px 0px; animation-duration: 1s; animation-delay: -0.363636s; animation-direction: normal;">path,ellipse,circle,rect,polygon,polyline,line { stroke-width: 0; }@keyframes ld-breath {
  0% {
    -webkit-transform: scale(0.86);
    transform: scale(0.86);
  }
  50% {
    -webkit-transform: scale(1.06);
    transform: scale(1.06);
  }
  100% {
    -webkit-transform: scale(0.86);
    transform: scale(0.86);
  }
}
@-webkit-keyframes ld-breath {
  0% {
    -webkit-transform: scale(0.86);
    transform: scale(0.86);
  }
  50% {
    -webkit-transform: scale(1.06);
    transform: scale(1.06);
  }
  100% {
    -webkit-transform: scale(0.86);
    transform: scale(0.86);
  }
}
.ld.ld-breath {
  -webkit-animation: ld-breath 1s infinite;
  animation: ld-breath 1s infinite;
}
</style></svg></svg>