<svg xmlns="http://www.w3.org/2000/svg" version="1.0" width="1280.000000pt" height="1205.000000pt" viewBox="0 0 1280.000000 1205.000000" preserveAspectRatio="xMidYMid meet">
            <g transform="translate(0.000000,1205.000000) scale(0.100000,-0.100000)" fill="#000000" stroke="none">
            <path d="M8478 12035 c-758 -71 -1447 -365 -2008 -859 -41 -36 -77 -66 -80 -66 -3 0 -55 42 -116 93 -470 391 -991 637 -1614 761 -448 90 -984 99 -1465 25 -1243 -191 -2242 -919 -2776 -2024 -207 -429 -335 -871 -395 -1365 -25 -203 -25 -675 0 -885 155 -1317 848 -2592 2215 -4075 64 -69 248 -259 411 -423 586 -593 1174 -1128 2020 -1838 573 -481 1700 -1382 1714 -1370 6 4 211 158 456 341 729 546 1082 823 1595 1251 1453 1211 2582 2411 3291 3500 624 959 962 1836 1056 2739 19 187 16 650 -6 830 -162 1329 -887 2371 -2045 2939 -446 219 -915 352 -1471 417 -185 21 -596 26 -782 9z m92 -996 c28 -310 57 -653 67 -761 15 -178 19 -198 35 -198 10 0 18 5 18 10 0 22 -59 908 -65 973 l-6 67 30 0 c25 0 31 -4 31 -22 0 -13 7 -153 15 -313 8 -159 15 -296 15 -302 0 -7 10 -13 22 -13 l21 0 -7 308 c-3 169 -9 389 -13 490 l-6 182 30 0 30 0 7 -77 c3 -42 6 -334 6 -650 0 -550 1 -573 18 -573 17 0 19 13 25 152 4 83 7 285 7 448 0 163 3 358 7 433 l6 137 29 0 c20 0 28 -5 28 -17 0 -10 -7 -207 -15 -438 -8 -231 -15 -462 -15 -512 0 -86 1 -93 20 -93 16 0 20 7 20 33 0 17 7 154 15 302 8 149 15 273 15 278 0 13 41 7 46 -7 3 -8 -1 -115 -10 -238 -21 -288 -21 -288 3 -288 16 0 20 10 25 58 7 62 96 1077 96 1093 0 10 30 12 52 4 11 -5 5 -84 -34 -453 -56 -532 -55 -512 -25 -512 23 0 23 4 62 335 21 184 42 340 46 346 4 7 17 9 31 6 l24 -6 -27 -208 c-16 -115 -31 -223 -34 -240 -6 -31 -4 -33 22 -33 l29 0 49 335 49 336 30 -3 c24 -2 30 -7 29 -23 -2 -11 -37 -226 -78 -477 -87 -532 -88 -543 -60 -543 18 0 27 41 117 540 53 297 97 542 98 544 0 3 53 -9 58 -14 2 -1 -47 -258 -108 -570 -61 -313 -109 -569 -108 -571 2 -1 12 -4 22 -6 18 -3 28 36 123 482 56 267 102 486 103 487 0 1 12 -2 28 -6 15 -4 26 -14 25 -22 -2 -17 -51 -235 -104 -468 -22 -95 -38 -180 -35 -187 3 -8 14 -14 24 -14 14 0 22 18 40 93 12 50 64 262 114 469 l92 377 26 -6 c14 -3 28 -8 31 -12 4 -3 -40 -184 -97 -401 -227 -862 -275 -1046 -277 -1065 -1 -11 5 -21 15 -23 20 -4 8 -43 168 532 72 259 132 471 134 473 2 2 15 -1 29 -6 l26 -10 -24 -79 c-14 -43 -56 -183 -93 -310 -65 -218 -68 -232 -50 -238 11 -3 22 -4 25 -1 2 3 70 211 149 463 80 252 146 460 148 461 5 5 56 -16 56 -23 0 -3 -92 -281 -205 -617 -201 -598 -209 -626 -174 -627 7 0 33 72 258 705 120 341 140 390 157 387 10 -2 23 -8 28 -12 5 -5 -67 -211 -173 -495 -100 -267 -179 -490 -176 -495 19 -31 40 9 146 275 61 157 115 285 119 285 3 0 14 -6 23 -13 16 -11 10 -30 -76 -238 -117 -279 -112 -265 -88 -272 13 -3 22 3 31 22 7 14 109 246 226 515 118 269 219 497 225 507 8 16 13 17 34 7 14 -6 25 -15 25 -20 0 -5 -88 -200 -195 -432 -107 -233 -195 -428 -195 -434 0 -9 30 -26 36 -20 1 2 70 142 153 311 82 169 154 307 158 307 5 0 17 -6 27 -13 18 -13 12 -27 -90 -227 -102 -202 -107 -213 -89 -226 10 -8 22 -11 26 -7 4 5 76 138 160 297 85 158 159 290 166 293 7 3 21 -1 32 -9 19 -13 9 -33 -236 -472 -253 -451 -263 -475 -222 -476 3 0 131 214 284 475 153 261 280 475 284 475 3 0 16 -8 28 -18 l22 -17 -304 -495 c-167 -272 -301 -498 -297 -502 4 -4 12 -8 19 -10 7 -2 130 181 275 406 145 225 268 411 273 413 6 2 20 -3 30 -11 19 -14 12 -27 -171 -299 -186 -277 -202 -307 -159 -307 6 0 134 176 285 390 150 215 277 390 281 390 4 0 17 -8 29 -18 l22 -18 -451 -614 c-248 -338 -449 -619 -448 -624 2 -6 8 -11 14 -13 5 -2 153 183 328 411 l318 415 22 -17 c13 -9 20 -21 16 -27 -5 -5 -90 -113 -191 -240 -101 -126 -188 -236 -193 -243 -7 -9 -6 -18 5 -28 14 -14 47 22 329 359 307 367 314 374 336 360 13 -9 23 -19 23 -24 0 -5 -191 -228 -425 -495 -353 -403 -424 -489 -414 -501 15 -17 -33 -67 434 445 354 388 368 402 386 386 10 -9 19 -21 19 -26 0 -4 -162 -178 -360 -385 -292 -306 -358 -379 -348 -390 9 -12 51 25 227 201 119 119 221 216 227 216 7 0 18 -7 25 -16 11 -14 7 -22 -36 -62 -28 -26 -115 -109 -194 -185 -127 -121 -143 -139 -130 -152 13 -13 67 33 439 375 234 214 430 389 435 389 6 0 17 -10 26 -22 16 -22 11 -27 -342 -336 -198 -173 -359 -317 -359 -321 0 -4 6 -13 14 -19 11 -9 64 31 268 202 140 117 260 217 267 221 11 7 40 -18 41 -35 0 -4 -78 -69 -172 -144 -218 -174 -204 -160 -188 -179 7 -9 16 -16 20 -16 4 0 128 93 276 206 l269 206 18 -23 c10 -12 16 -25 15 -30 -2 -5 -696 -516 -821 -604 -17 -12 -15 -45 3 -45 5 0 211 141 459 314 443 309 451 314 466 293 8 -12 15 -26 15 -32 -1 -5 -208 -147 -462 -314 -253 -168 -470 -312 -481 -321 -14 -12 -17 -21 -11 -33 8 -14 73 24 429 249 l419 266 17 -24 c10 -12 15 -26 11 -30 -4 -4 -135 -84 -292 -178 -157 -95 -286 -174 -288 -175 -2 -2 1 -12 7 -24 11 -19 34 -7 420 214 225 129 416 237 423 240 16 7 44 -44 31 -55 -4 -5 -303 -168 -663 -365 -360 -196 -658 -360 -662 -363 -4 -4 -3 -13 1 -21 7 -10 115 42 472 228 417 216 465 239 477 224 6 -9 12 -22 12 -27 0 -6 -131 -75 -291 -153 -273 -134 -290 -143 -279 -163 10 -18 13 -19 38 -6 15 7 213 100 441 206 385 178 416 191 428 174 7 -10 13 -23 13 -30 0 -6 -246 -120 -547 -252 -302 -133 -569 -250 -595 -262 -33 -14 -45 -25 -42 -35 4 -8 10 -15 14 -15 5 0 77 29 162 64 650 270 910 377 913 374 8 -10 26 -50 23 -52 -2 -2 -221 -88 -487 -192 -266 -104 -486 -195 -489 -202 -2 -7 -1 -17 4 -21 5 -5 137 39 293 97 272 101 284 104 298 86 12 -16 12 -20 0 -29 -8 -5 -121 -46 -251 -90 -174 -59 -236 -84 -236 -96 0 -33 -18 -37 285 61 384 124 807 261 819 266 14 5 41 -52 28 -60 -4 -2 -167 -52 -362 -110 -579 -175 -550 -165 -550 -185 0 -10 2 -20 5 -23 3 -2 154 37 337 88 340 96 347 97 348 52 0 -12 -12 -20 -37 -27 -21 -5 -110 -28 -198 -51 -88 -23 -176 -46 -197 -51 -29 -7 -35 -13 -31 -29 3 -11 8 -22 12 -24 3 -3 51 7 106 20 379 92 558 134 561 132 1 -2 4 -16 6 -32 l3 -29 -125 -27 c-69 -16 -282 -62 -475 -105 -453 -99 -424 -91 -418 -116 4 -15 11 -19 27 -15 59 14 1036 206 1049 206 14 0 33 -47 24 -57 -2 -2 -262 -50 -576 -106 -538 -96 -572 -103 -569 -122 2 -13 10 -19 23 -18 33 4 918 143 941 148 17 4 23 -1 28 -21 4 -15 4 -29 1 -32 -3 -3 -154 -27 -335 -52 -181 -26 -332 -49 -336 -52 -3 -4 -4 -15 -2 -25 3 -18 22 -17 443 34 574 68 519 65 523 26 2 -18 0 -33 -3 -33 -4 0 -343 -34 -755 -75 -412 -41 -751 -75 -754 -75 -3 0 -6 -10 -6 -21 0 -20 4 -21 48 -16 129 16 972 79 986 74 9 -4 16 -15 16 -26 0 -15 -8 -21 -32 -25 -33 -5 -540 -36 -590 -36 -23 0 -28 -4 -28 -26 l0 -26 103 6 c134 9 774 36 832 36 43 0 45 -1 45 -30 0 -16 -1 -30 -2 -30 -24 -3 -1114 -30 -1190 -30 -101 0 -108 -1 -108 -20 0 -20 7 -20 585 -20 l585 0 0 -29 0 -29 -530 5 c-529 6 -530 6 -530 -14 0 -20 7 -21 238 -27 130 -4 270 -9 310 -12 69 -5 72 -7 72 -31 l0 -26 -97 6 c-54 4 -176 10 -270 13 -169 7 -173 7 -173 -13 0 -26 -26 -23 638 -65 l522 -33 0 -33 0 -34 -57 6 c-32 3 -227 20 -433 36 -206 16 -396 32 -422 35 -46 5 -48 4 -48 -19 0 -29 -17 -26 355 -61 360 -34 338 -30 330 -63 -4 -15 -7 -28 -8 -28 -1 -1 -108 11 -237 26 -129 15 -236 27 -237 26 -2 -1 -4 -13 -5 -26 -3 -24 -3 -24 237 -56 132 -18 284 -38 338 -44 l98 -12 -3 -32 c-2 -24 -7 -30 -23 -29 -11 2 -231 34 -490 72 -587 87 -529 81 -533 54 -2 -13 -1 -23 2 -23 9 0 1041 -170 1064 -175 22 -5 29 -29 14 -53 -7 -10 -129 9 -562 88 -305 55 -562 100 -571 100 -9 0 -19 -9 -22 -19 -4 -18 28 -26 437 -106 242 -48 462 -91 488 -97 45 -9 48 -11 42 -36 -4 -15 -8 -28 -9 -30 -1 -1 -152 30 -335 69 -265 56 -335 68 -341 57 -11 -16 -11 -38 -1 -38 15 0 925 -210 930 -214 8 -8 -8 -56 -18 -56 -8 0 -506 120 -1237 298 -244 59 -253 60 -253 23 0 -4 227 -65 505 -136 385 -99 505 -134 505 -145 0 -45 -8 -44 -326 43 -298 81 -309 84 -317 64 -4 -11 -5 -22 -3 -25 3 -2 214 -64 468 -137 448 -128 463 -133 460 -156 -1 -13 -6 -26 -10 -30 -4 -4 -272 74 -597 172 -324 98 -604 181 -621 185 -24 4 -33 2 -38 -12 -3 -9 -5 -18 -4 -19 2 -2 251 -81 553 -176 303 -95 552 -174 554 -175 2 -2 0 -15 -3 -30 -5 -20 -12 -25 -29 -22 -12 3 -237 76 -500 163 -393 130 -480 156 -488 144 -5 -8 -7 -18 -6 -23 2 -5 131 -52 287 -106 176 -60 286 -103 287 -111 8 -44 -11 -41 -256 46 -134 48 -250 84 -258 81 -49 -19 5 -43 535 -239 505 -187 542 -202 536 -221 -3 -12 -9 -24 -13 -28 -4 -5 -208 69 -454 163 -246 95 -449 170 -451 168 -2 -2 -6 -14 -10 -25 -6 -18 -1 -24 26 -33 18 -6 164 -64 325 -127 291 -115 292 -116 281 -140 -6 -13 -15 -24 -19 -24 -5 0 -102 38 -216 85 -114 47 -213 85 -220 85 -11 0 -29 -38 -21 -44 1 -2 140 -60 308 -131 168 -70 308 -129 312 -132 8 -4 -12 -53 -22 -53 -3 0 -220 92 -480 206 -437 189 -476 204 -487 188 -7 -10 -9 -22 -5 -26 4 -4 230 -107 502 -228 271 -121 495 -222 498 -224 2 -2 -2 -16 -10 -30 l-13 -25 -524 240 c-289 132 -531 237 -539 234 -44 -17 7 -46 433 -246 241 -113 440 -210 442 -215 2 -6 -3 -18 -10 -28 -13 -18 -31 -11 -322 129 -309 149 -324 154 -325 109 0 -6 194 -106 430 -223 237 -117 430 -216 430 -220 0 -4 -7 -16 -15 -27 -14 -18 -41 -6 -696 325 -374 188 -685 339 -689 335 -5 -5 -10 -15 -12 -22 -2 -7 172 -103 456 -250 253 -130 461 -242 463 -247 2 -6 -2 -18 -9 -28 -12 -15 -40 -2 -298 133 -257 135 -286 148 -297 133 -7 -9 -13 -19 -13 -22 0 -4 188 -107 418 -230 229 -123 423 -229 429 -234 11 -8 5 -34 -12 -55 -2 -2 -258 136 -569 307 -311 171 -570 311 -575 311 -12 0 -23 -32 -14 -41 4 -4 231 -132 503 -284 272 -153 496 -279 498 -280 2 -2 -2 -15 -10 -29 l-13 -26 -458 262 c-460 263 -477 270 -477 223 0 -5 119 -79 265 -163 l264 -154 -15 -23 -15 -24 -72 43 c-40 23 -137 81 -217 129 -177 105 -176 104 -185 77 -4 -12 -5 -23 -3 -25 1 -1 221 -134 488 -295 267 -161 489 -296 493 -300 8 -7 -12 -50 -23 -50 -3 0 -189 112 -413 249 -400 245 -407 249 -422 228 -8 -12 -11 -24 -7 -27 4 -4 136 -87 295 -185 158 -98 287 -181 287 -184 0 -3 -7 -15 -15 -25 -14 -18 -24 -13 -215 107 -111 70 -204 127 -208 127 -4 0 -13 -9 -20 -20 -11 -18 -5 -24 70 -73 46 -29 176 -113 290 -186 183 -117 206 -135 198 -151 -6 -11 -14 -21 -19 -24 -4 -3 -205 123 -446 280 -404 263 -438 283 -451 267 -7 -10 -13 -20 -14 -23 0 -3 207 -142 460 -309 253 -167 460 -306 460 -310 0 -3 -7 -15 -15 -26 -15 -18 -35 -6 -495 303 -264 177 -484 322 -489 322 -6 0 -15 -8 -20 -18 -9 -17 38 -51 399 -297 226 -154 410 -281 410 -284 -1 -18 -30 -42 -42 -35 -7 4 -133 90 -280 191 -147 101 -271 183 -277 183 -6 0 -15 -8 -20 -19 -9 -17 32 -48 379 -291 214 -149 392 -275 395 -280 3 -4 -3 -17 -13 -28 -17 -21 -24 -16 -637 418 -341 242 -623 440 -627 440 -4 0 -12 -9 -18 -19 -9 -18 32 -50 412 -322 233 -166 425 -304 427 -306 3 -2 -4 -13 -16 -24 l-21 -21 -255 186 c-140 102 -260 186 -266 186 -6 0 -15 -8 -20 -19 -9 -16 31 -48 342 -277 194 -142 371 -272 394 -290 43 -32 43 -32 25 -55 l-19 -22 -449 333 c-247 184 -482 358 -522 388 -68 52 -74 54 -90 39 -15 -16 -15 -18 3 -36 20 -18 225 -174 674 -510 l243 -183 -20 -21 c-15 -15 -25 -17 -34 -10 -67 52 -806 611 -814 616 -6 4 -19 -2 -28 -12 -17 -18 -8 -26 215 -197 128 -99 239 -184 247 -189 11 -9 11 -14 -5 -32 l-18 -22 -205 159 c-113 88 -210 160 -215 160 -6 0 -15 -8 -21 -17 -10 -16 47 -64 447 -377 454 -357 457 -360 442 -383 -8 -13 -17 -23 -19 -23 -2 0 -168 131 -369 291 -202 159 -372 292 -379 295 -15 6 -40 -21 -32 -35 3 -5 123 -103 266 -217 143 -114 260 -213 260 -220 0 -6 -7 -17 -15 -24 -17 -14 -6 -22 -235 163 -154 125 -155 126 -175 107 -12 -12 -16 -23 -10 -29 6 -4 125 -102 265 -216 140 -114 257 -210 259 -212 3 -2 -5 -13 -16 -25 l-21 -21 -401 332 c-221 182 -405 331 -409 331 -4 0 -13 -9 -19 -19 -11 -18 23 -49 405 -367 229 -191 420 -350 424 -353 4 -3 -1 -17 -11 -30 l-18 -23 -447 376 c-365 308 -450 375 -462 365 -8 -6 -14 -17 -14 -23 0 -6 169 -155 375 -330 l375 -318 -18 -23 c-14 -19 -20 -21 -32 -11 -8 7 -127 109 -264 226 -231 197 -250 212 -262 195 -8 -11 -14 -22 -14 -25 0 -4 162 -146 359 -316 198 -170 360 -314 360 -320 1 -6 -7 -18 -16 -26 -17 -14 -62 23 -593 487 -572 499 -575 502 -595 483 -20 -19 -20 -19 0 -36 11 -9 187 -163 390 -341 204 -179 371 -326 373 -327 7 -5 -19 -44 -29 -44 -6 0 -103 82 -216 183 -285 253 -271 241 -289 226 -8 -7 -14 -18 -12 -24 2 -7 158 -151 348 -320 190 -169 352 -314 360 -321 13 -12 12 -17 -6 -35 l-21 -20 -469 422 c-258 232 -476 428 -485 435 -13 12 -18 11 -33 -5 -17 -18 -2 -33 413 -410 237 -215 431 -395 431 -400 0 -12 -28 -34 -38 -29 -8 2 -524 471 -725 657 -47 44 -48 44 -67 25 -19 -19 -17 -21 181 -204 110 -102 211 -195 225 -207 21 -20 23 -25 12 -43 -7 -11 -16 -20 -20 -20 -3 0 -94 81 -200 180 -192 178 -193 179 -213 160 -19 -20 -19 -20 0 -39 27 -25 807 -751 822 -765 9 -8 8 -17 -6 -35 l-19 -25 -352 333 c-343 324 -353 332 -372 314 -19 -17 -17 -19 79 -113 54 -53 168 -162 253 -242 l155 -147 -20 -20 -20 -20 -174 164 c-95 91 -176 165 -180 165 -3 0 -12 -9 -18 -19 -13 -21 -36 3 370 -391 106 -103 107 -104 88 -124 -22 -22 6 -48 -519 462 -208 202 -256 244 -270 236 -9 -6 -17 -15 -19 -20 -2 -6 174 -183 392 -394 373 -363 394 -385 378 -402 -9 -10 -19 -18 -23 -18 -4 0 -194 182 -421 405 -401 393 -414 404 -432 387 -18 -18 -7 -29 335 -369 l353 -351 -20 -22 -19 -21 -246 246 -246 246 -19 -21 c-19 -21 -18 -22 323 -363 l343 -343 -21 -19 c-21 -19 -22 -18 -563 523 -522 522 -544 542 -560 524 -16 -18 -2 -34 350 -391 299 -304 365 -376 357 -389 -6 -9 -15 -17 -20 -19 -6 -2 -112 100 -237 225 -216 218 -227 228 -243 211 -16 -18 -12 -24 74 -116 50 -54 111 -118 137 -143 26 -25 137 -139 248 -253 l200 -208 -20 -20 -20 -20 -449 463 c-247 255 -454 464 -460 466 -6 2 -17 -4 -24 -13 -11 -14 -7 -23 36 -68 182 -190 593 -617 668 -694 l91 -93 -21 -21 -21 -20 -364 380 c-359 375 -364 380 -383 361 -19 -19 -17 -21 120 -165 287 -302 284 -298 266 -317 -8 -10 -18 -18 -22 -18 -3 0 -86 85 -184 189 -160 171 -180 189 -197 178 -11 -7 -18 -17 -17 -24 2 -6 180 -199 396 -429 l393 -417 -20 -21 c-21 -20 -21 -20 -40 -1 -10 11 -158 169 -328 351 -306 327 -311 331 -332 314 -22 -16 -21 -18 213 -269 130 -139 236 -257 236 -261 0 -4 -8 -14 -18 -23 -17 -15 -27 -6 -182 162 -153 167 -166 178 -182 164 -10 -9 -18 -19 -18 -23 0 -4 103 -120 229 -256 213 -231 228 -250 214 -266 -9 -10 -20 -18 -24 -18 -4 0 -166 173 -360 385 -350 382 -353 385 -373 366 -22 -22 -71 37 487 -575 l237 -260 -20 -20 -20 -21 -34 35 c-18 19 -187 206 -376 415 -189 209 -351 388 -360 398 -16 17 -17 17 -38 0 -22 -18 -21 -18 312 -388 312 -345 333 -371 319 -387 -9 -10 -19 -18 -23 -18 -4 0 -110 115 -236 255 -227 252 -229 254 -248 235 -18 -18 -18 -21 -4 -37 8 -10 151 -170 317 -356 165 -186 301 -341 301 -346 0 -4 -8 -15 -17 -24 -17 -14 -52 23 -528 558 -503 566 -510 574 -529 555 -22 -22 -72 40 387 -479 l287 -325 -20 -20 c-24 -24 8 -55 -245 234 -103 118 -191 219 -195 223 -8 10 -50 -9 -50 -21 0 -5 144 -172 319 -372 298 -341 319 -366 304 -382 -9 -10 -19 -18 -23 -18 -4 0 -198 218 -431 485 -232 267 -428 485 -435 485 -6 0 -17 -7 -24 -15 -10 -12 51 -86 351 -432 199 -230 371 -428 383 -441 l20 -22 -20 -21 -21 -20 -342 395 c-188 218 -346 398 -350 401 -5 2 -16 -4 -25 -14 -16 -17 -7 -30 184 -251 191 -223 200 -234 183 -252 -9 -10 -20 -17 -23 -16 -4 2 -80 89 -170 193 -89 105 -166 194 -171 200 -6 6 -16 2 -29 -10 -19 -20 -16 -24 355 -459 206 -241 375 -442 375 -446 0 -4 -8 -14 -18 -23 -17 -15 -35 4 -327 348 -171 201 -315 365 -321 365 -6 0 -17 -7 -24 -15 -10 -13 -10 -19 2 -33 38 -43 405 -479 417 -495 13 -16 12 -20 -5 -38 -20 -20 -21 -19 -165 152 -79 94 -149 177 -156 186 -9 12 -15 12 -32 1 -12 -7 -19 -18 -17 -25 3 -6 100 -125 217 -264 171 -203 210 -255 202 -268 -6 -9 -16 -17 -24 -18 -8 -1 -164 178 -348 398 -332 400 -333 401 -353 381 -20 -20 -19 -21 331 -441 193 -232 351 -425 351 -429 0 -12 -42 -34 -50 -25 -3 4 -167 203 -364 440 -196 238 -362 435 -367 439 -10 6 -39 -13 -39 -26 0 -5 139 -178 310 -384 171 -207 310 -380 310 -384 0 -12 -42 -34 -50 -25 -3 4 -89 109 -190 233 -263 322 -235 292 -260 272 -21 -17 -20 -20 284 -391 292 -357 305 -375 289 -393 -9 -10 -20 -17 -24 -16 -4 2 -222 266 -484 588 -262 322 -482 586 -489 588 -7 2 -19 -4 -26 -13 -10 -13 -10 -18 2 -33 16 -18 614 -757 631 -780 7 -9 5 -19 -9 -33 -19 -19 -21 -17 -218 226 -109 135 -202 248 -207 251 -5 3 -18 -1 -29 -9 -19 -13 -7 -31 280 -386 165 -205 303 -377 306 -383 10 -16 -24 -44 -41 -33 -8 6 -193 233 -411 505 -218 272 -402 494 -408 492 -46 -13 -38 -24 328 -482 200 -250 362 -458 359 -462 -2 -5 -13 -12 -23 -18 -16 -8 -26 0 -72 58 -526 665 -599 752 -618 742 -11 -6 -20 -15 -20 -20 0 -8 307 -402 367 -471 12 -14 11 -18 -11 -32 l-24 -16 -162 204 c-89 113 -165 205 -170 205 -6 0 -23 -12 -40 -27 l-31 -28 356 -452 c195 -249 355 -456 355 -460 0 -15 -72 -66 -79 -55 -3 5 -136 176 -295 380 -260 333 -291 369 -308 359 -10 -7 -16 -18 -13 -27 4 -8 87 -142 187 -298 201 -313 188 -278 116 -332 l-27 -20 -94 182 c-52 101 -103 200 -114 220 l-18 38 -27 -23 -27 -22 129 -325 c71 -179 129 -329 129 -335 0 -10 -98 -89 -104 -83 -1 2 -28 89 -58 193 -31 105 -101 344 -156 532 -56 188 -101 345 -101 348 0 4 -6 2 -14 -4 -10 -8 -11 -22 -5 -54 9 -47 174 -857 212 -1042 14 -66 25 -120 24 -121 -1 0 -27 -20 -57 -44 -37 -28 -56 -38 -57 -29 -2 8 -39 307 -83 664 -44 358 -82 655 -84 660 -17 47 -14 -111 12 -618 17 -325 29 -593 27 -596 -2 -4 -25 -22 -51 -40 l-47 -34 7 441 c8 435 8 440 -12 451 -12 6 -23 11 -25 11 -3 0 -7 -37 -9 -82 -15 -258 -84 -1068 -92 -1068 -20 0 -106 83 -106 103 0 12 54 379 120 816 67 436 119 798 118 803 -2 6 -32 -111 -66 -259 -130 -564 -173 -748 -177 -751 -8 -8 -75 54 -74 68 0 8 46 157 103 330 87 266 101 317 90 329 -7 8 -15 13 -18 10 -2 -2 -93 -212 -201 -466 l-197 -463 -53 42 -54 42 16 30 c9 17 130 242 271 501 140 259 274 507 299 553 25 45 43 82 40 82 -2 0 -150 -216 -328 -480 -178 -263 -326 -479 -329 -480 -3 0 -25 17 -49 38 l-43 37 297 365 c164 201 314 385 334 409 l35 43 -34 29 c-19 16 -37 28 -40 28 -3 0 -90 -105 -195 -234 -104 -128 -194 -234 -199 -234 -4 -1 -23 12 -41 28 l-33 29 168 203 c166 202 168 204 149 224 -19 19 -19 19 -38 0 -10 -11 -177 -212 -370 -447 -194 -236 -356 -428 -360 -428 -4 0 -15 8 -23 18 -14 16 8 46 290 385 305 369 305 369 285 389 -20 20 -20 20 -234 -238 -118 -142 -217 -262 -221 -268 -8 -12 -39 2 -45 21 -2 6 64 93 148 193 151 182 151 182 131 202 -20 20 -20 20 -242 -247 -223 -266 -223 -266 -243 -246 -20 19 -19 20 312 418 182 219 332 403 332 408 0 6 -8 16 -18 22 -17 11 -52 -28 -373 -412 -333 -399 -356 -423 -372 -408 -10 9 -18 20 -18 24 0 4 167 207 371 450 l370 442 -20 21 c-11 11 -22 18 -24 15 -69 -85 -631 -750 -636 -754 -5 -2 -16 4 -26 15 -16 18 -9 28 205 281 l221 263 -23 17 c-12 10 -23 17 -24 16 -25 -33 -619 -733 -624 -735 -3 -1 -14 6 -24 17 -17 18 -1 38 478 602 490 579 494 584 475 604 -17 17 -21 18 -33 5 -8 -8 -159 -186 -336 -395 -177 -209 -326 -382 -331 -383 -15 -6 -40 20 -35 34 3 7 96 119 207 249 202 236 202 237 182 257 -20 20 -20 19 -337 -351 -199 -232 -322 -369 -329 -365 -7 4 -17 11 -24 16 -8 7 111 153 413 505 l425 496 -20 20 c-11 12 -22 19 -24 16 -4 -4 -736 -859 -747 -872 -11 -13 -52 12 -46 28 4 11 573 678 659 772 16 19 18 25 7 38 -7 8 -18 15 -24 15 -6 0 -101 -104 -210 -231 l-199 -230 -21 20 -20 21 20 22 c12 13 81 93 154 178 74 85 143 165 154 178 19 21 19 23 3 40 -12 12 -21 14 -31 7 -8 -6 -181 -202 -386 -437 l-371 -428 -24 16 -25 16 93 107 c331 378 514 589 526 604 13 16 12 20 -5 37 -19 19 -22 15 -244 -240 -124 -142 -231 -258 -239 -257 -8 1 -18 9 -24 18 -8 13 19 50 146 194 87 97 157 180 157 184 0 3 -10 12 -22 20 -18 11 -23 11 -32 -1 -6 -8 -107 -123 -224 -256 l-214 -241 -23 17 c-23 16 -23 18 -5 37 10 11 167 189 349 395 l332 375 -22 18 c-12 10 -25 14 -29 10 -179 -205 -723 -813 -728 -813 -4 0 -16 7 -26 15 -19 15 -19 16 16 53 19 20 185 206 368 412 183 206 342 385 354 398 20 22 20 23 0 42 -19 19 -22 16 -324 -321 -168 -187 -317 -354 -332 -372 l-27 -32 -21 21 -21 21 232 258 c216 239 231 259 214 271 -10 8 -22 14 -26 14 -6 0 -625 -679 -641 -704 -5 -7 -15 -4 -29 11 l-22 21 329 363 c181 200 411 453 511 563 100 111 183 206 183 211 0 6 -8 15 -18 22 -17 10 -54 -28 -333 -334 -173 -189 -331 -363 -351 -386 l-36 -42 -21 20 -21 21 141 154 c329 361 295 318 273 341 -20 19 -22 17 -319 -307 -165 -179 -314 -341 -330 -361 -30 -35 -30 -35 -54 -16 l-23 19 441 478 c243 263 441 482 441 486 0 14 -29 32 -40 25 -5 -3 -177 -187 -382 -408 -204 -221 -379 -411 -389 -422 -19 -19 -19 -19 -40 1 l-21 21 350 375 c192 206 352 380 356 387 8 12 -10 41 -24 41 -5 0 -101 -99 -215 -220 -114 -122 -212 -219 -218 -217 -6 2 -15 10 -21 19 -8 13 26 54 172 209 173 183 181 194 165 211 -9 10 -20 17 -23 16 -4 -2 -168 -174 -365 -383 -477 -507 -428 -459 -454 -446 -11 7 -21 15 -21 19 0 4 149 165 330 356 316 334 329 350 313 368 -9 10 -19 17 -23 16 -3 -2 -111 -113 -239 -248 -129 -135 -237 -246 -241 -248 -3 -1 -14 6 -24 16 -16 18 -10 26 149 193 164 172 165 173 146 193 -19 19 -21 18 -173 -140 -84 -87 -191 -198 -237 -247 l-85 -87 -20 20 -20 20 55 57 c30 32 194 201 363 376 302 311 308 318 290 338 -17 19 -19 19 -76 -38 -33 -32 -206 -210 -386 -395 -322 -333 -327 -337 -346 -318 -19 19 -19 20 27 72 26 29 209 217 406 418 359 365 360 365 340 385 -20 20 -20 20 -368 -335 l-348 -355 -22 19 -21 19 240 242 c132 134 240 247 240 252 0 6 -7 16 -16 24 -13 11 -61 -33 -358 -330 l-342 -342 -19 21 c-19 21 -18 22 518 558 295 295 537 542 537 548 0 6 -7 17 -16 25 -13 11 -64 -36 -382 -354 -202 -202 -372 -367 -378 -367 -6 0 -17 7 -25 16 -11 13 18 46 216 244 228 228 229 229 210 250 l-19 21 -220 -218 c-122 -120 -278 -274 -348 -343 l-128 -125 -20 21 -21 21 466 453 c463 452 465 454 446 474 -20 19 -21 18 -313 -266 -587 -570 -542 -531 -564 -507 -19 21 -18 22 221 252 132 127 303 293 380 369 132 129 139 138 123 154 -19 19 -17 21 -333 -280 -136 -129 -136 -129 -156 -110 -20 20 -19 21 176 204 l195 184 -20 20 -20 20 -62 -60 c-35 -34 -224 -213 -422 -399 -295 -279 -361 -337 -375 -328 -9 6 -16 17 -16 25 0 8 119 126 265 263 411 385 423 397 413 414 -5 8 -14 16 -19 18 -6 2 -124 -102 -264 -232 -227 -212 -254 -234 -265 -218 -7 10 -14 22 -15 26 -1 5 74 79 167 164 92 85 170 159 171 164 4 10 -16 39 -27 39 -4 0 -119 -103 -256 -229 -232 -213 -251 -228 -267 -214 -10 9 -18 20 -18 24 0 6 737 682 769 706 3 2 -4 13 -15 24 l-20 20 -385 -347 c-211 -190 -397 -358 -412 -373 -28 -25 -29 -26 -43 -7 -8 11 -14 23 -14 27 0 7 826 752 854 771 7 5 4 14 -9 27 l-20 21 -370 -329 c-342 -304 -371 -327 -387 -313 -10 8 -18 19 -18 23 0 6 437 396 509 456 3 2 -4 13 -15 24 l-20 20 -215 -188 c-118 -103 -281 -246 -363 -317 l-148 -129 -21 21 c-11 12 -19 23 -16 25 446 383 1145 993 1147 1002 2 6 -4 17 -12 24 -13 11 -76 -39 -413 -329 l-398 -341 -18 22 c-15 18 -16 25 -5 34 7 7 118 101 246 209 127 109 232 201 232 205 0 16 -29 33 -42 25 -7 -5 -168 -139 -358 -299 -190 -159 -353 -296 -363 -304 -16 -13 -21 -12 -38 6 l-21 20 501 417 c276 230 501 421 501 426 0 16 -30 33 -43 23 -6 -5 -207 -171 -446 -368 -348 -287 -437 -356 -450 -348 -9 6 -17 16 -18 24 -1 8 179 162 401 343 361 294 403 331 393 348 -7 10 -16 18 -20 18 -5 0 -114 -86 -244 -191 -235 -190 -236 -191 -256 -171 -19 20 -19 20 186 183 113 90 206 169 206 175 1 20 -28 38 -42 27 -740 -589 -891 -705 -906 -696 -9 6 -16 17 -16 25 0 9 168 147 373 307 333 262 371 294 362 312 -6 10 -15 19 -20 19 -4 0 -131 -95 -281 -211 l-272 -211 -17 22 c-20 27 -41 7 223 209 148 113 149 114 129 133 -20 20 -21 19 -293 -187 l-273 -206 -17 23 c-10 12 -16 24 -15 25 2 2 189 143 417 314 228 170 414 315 414 321 0 6 -7 15 -16 21 -12 8 -107 -58 -455 -315 -403 -299 -440 -324 -456 -310 -10 8 -18 20 -18 26 1 6 123 100 273 208 699 507 669 484 649 506 -17 20 -22 17 -417 -268 -372 -269 -401 -288 -417 -273 -10 9 -18 19 -18 24 0 4 126 96 280 206 262 186 278 199 266 218 -7 11 -17 19 -21 19 -4 -1 -183 -124 -397 -275 l-391 -273 -18 23 -19 23 52 38 c29 20 309 214 623 430 314 216 574 396 579 401 13 11 -14 41 -31 35 -8 -3 -203 -135 -435 -292 -392 -268 -422 -286 -434 -269 -8 11 -14 22 -14 26 0 3 116 84 258 179 141 95 261 176 266 181 4 4 2 17 -6 28 -14 20 -28 11 -422 -250 -376 -248 -409 -268 -422 -252 -7 10 -13 23 -14 28 0 6 245 169 545 363 505 328 543 355 532 373 -6 10 -16 17 -22 15 -5 -2 -219 -137 -473 -300 -255 -163 -473 -301 -485 -307 -17 -9 -23 -8 -34 7 -7 10 -13 21 -13 24 0 4 200 132 444 285 387 244 443 282 435 297 -5 10 -15 18 -21 18 -5 0 -123 -70 -260 -155 -137 -85 -253 -155 -258 -155 -9 0 -34 40 -28 44 2 2 103 63 225 137 123 74 223 137 223 140 0 3 -6 13 -13 22 -11 15 -63 -14 -507 -278 -272 -162 -498 -295 -502 -295 -4 0 -13 10 -19 22 -10 18 -8 24 7 35 10 7 190 113 399 235 209 122 386 227 393 233 11 10 11 18 3 33 -10 20 -26 12 -313 -153 l-303 -174 -13 26 c-8 13 -12 26 -10 28 2 1 93 53 203 115 110 62 203 115 207 118 4 4 1 17 -5 29 -12 21 -19 18 -312 -143 l-299 -165 -18 23 c-9 13 -14 26 -10 29 4 4 210 115 457 248 248 133 453 245 457 249 4 4 1 15 -7 25 -12 17 -45 2 -501 -238 -451 -238 -489 -256 -501 -239 -7 10 -13 23 -13 28 0 6 232 130 515 274 283 145 515 269 515 276 0 43 -26 33 -463 -186 -411 -205 -442 -219 -454 -202 -7 10 -12 22 -10 27 1 5 140 76 307 158 184 90 304 154 302 162 -7 27 -22 29 -69 10 -26 -12 -222 -104 -436 -206 l-387 -185 -15 27 -14 28 272 127 c150 69 461 213 692 320 230 106 420 197 422 202 1 5 -1 15 -6 23 -8 12 -100 -27 -480 -197 -258 -117 -474 -212 -480 -212 -13 0 -25 40 -14 50 4 4 137 63 295 131 158 68 288 127 288 130 0 3 -6 13 -13 22 -11 16 -49 2 -457 -171 -397 -169 -446 -188 -458 -173 -7 8 -11 22 -10 30 2 8 250 115 597 257 326 134 595 245 597 247 7 6 -7 37 -16 37 -5 0 -248 -95 -541 -211 -496 -195 -534 -209 -546 -193 -7 10 -12 23 -10 29 2 5 221 93 487 195 266 102 485 190 487 195 1 6 -1 16 -5 23 -7 10 -76 -12 -297 -93 -158 -58 -289 -104 -291 -102 -2 2 -5 14 -6 26 -3 22 13 29 241 110 135 48 246 91 248 96 1 6 -1 16 -6 24 -7 11 -113 -22 -547 -169 -297 -101 -544 -185 -550 -187 -10 -4 -39 46 -30 54 2 2 208 70 457 152 407 131 454 149 451 166 -2 11 -6 22 -8 24 -2 2 -151 -42 -331 -97 -180 -56 -330 -98 -334 -94 -4 4 -10 16 -13 27 -6 19 6 24 141 63 308 89 313 91 313 118 0 13 -4 24 -8 24 -4 0 -153 -40 -331 -90 -178 -49 -327 -87 -331 -85 -4 3 -10 16 -12 29 -6 28 -81 5 614 187 371 97 397 105 392 124 -4 11 -7 21 -9 23 -1 1 -238 -56 -528 -128 -289 -71 -530 -130 -535 -130 -9 0 -27 49 -20 56 2 1 249 59 548 129 300 69 553 128 563 131 19 6 24 44 5 44 -7 0 -226 -45 -486 -101 -260 -56 -474 -100 -476 -98 -2 2 -6 15 -9 29 l-6 26 297 59 c425 84 384 73 376 98 -3 12 -7 23 -8 24 -1 1 -210 -36 -464 -82 -254 -47 -469 -85 -476 -85 -8 0 -16 13 -18 29 -3 24 0 31 16 35 12 2 353 59 759 127 405 67 737 125 737 128 -1 34 -15 33 -523 -43 -278 -42 -510 -76 -516 -76 -6 0 -11 13 -11 28 l0 28 293 38 c372 49 349 44 345 70 -4 25 53 29 -501 -35 -235 -27 -438 -49 -451 -49 -18 0 -25 7 -29 28 -3 15 -5 28 -4 29 1 1 293 30 650 65 637 62 647 63 647 84 0 20 -4 22 -37 18 -21 -3 -263 -22 -538 -44 -275 -22 -521 -42 -547 -45 -48 -6 -48 -6 -48 24 0 24 5 32 23 35 12 3 220 16 462 31 580 34 565 32 565 58 0 20 -4 20 -137 14 -76 -4 -216 -10 -310 -13 l-173 -7 0 25 0 25 172 6 c95 4 215 7 266 7 90 0 92 1 92 23 l0 24 -580 -5 -580 -5 0 33 0 33 480 -5 480 -5 0 22 c0 21 -5 22 -112 28 -62 4 -160 7 -218 7 -58 0 -162 3 -232 7 l-128 6 0 28 0 28 163 -7 c89 -4 198 -7 242 -7 75 0 80 1 83 23 3 16 -2 22 -15 22 -10 0 -151 9 -313 20 -162 11 -310 20 -328 20 -31 0 -33 2 -30 33 3 31 5 32 43 29 22 -1 256 -20 519 -42 264 -22 481 -39 482 -37 1 1 4 11 6 22 3 19 -20 22 -547 77 -302 31 -550 57 -551 57 -6 6 11 61 20 61 6 0 265 -31 576 -69 561 -69 587 -70 577 -36 -3 8 -204 38 -905 136 -83 11 -84 11 -77 38 4 14 8 28 10 30 3 2 150 -20 327 -48 178 -28 331 -51 341 -51 13 0 17 6 15 22 -3 25 56 12 -595 128 -331 59 -353 65 -353 84 1 49 -2 49 415 -34 220 -44 551 -110 735 -145 184 -36 341 -68 348 -70 13 -5 29 21 19 31 -3 3 -45 14 -94 25 -428 94 -913 199 -918 199 -7 0 -6 33 3 46 5 9 95 -9 317 -61 170 -40 313 -71 317 -69 5 3 8 13 8 23 0 15 -38 28 -237 78 -131 33 -343 87 -470 119 -241 61 -244 63 -227 107 5 13 15 13 77 -5 40 -11 154 -42 255 -69 100 -27 265 -71 367 -99 102 -27 269 -73 371 -100 102 -28 190 -48 195 -44 15 9 10 32 -8 38 -10 3 -232 66 -493 141 -261 75 -505 145 -543 156 -65 19 -67 21 -61 47 4 15 8 28 8 29 2 2 607 -181 911 -275 54 -17 100 -30 101 -29 1 1 4 11 6 21 3 17 -33 31 -290 114 -272 89 -292 97 -286 116 4 12 8 23 10 25 2 2 116 -35 254 -82 239 -82 250 -85 260 -66 9 16 7 21 -12 28 -13 5 -252 92 -533 194 -280 102 -518 188 -527 192 -14 5 -15 12 -6 36 6 17 15 28 22 26 6 -2 208 -79 450 -172 353 -135 440 -165 447 -154 5 8 7 18 6 23 -2 6 -145 67 -317 137 -173 70 -316 131 -318 137 -2 6 1 20 7 31 10 18 22 15 232 -76 222 -95 238 -99 239 -57 0 6 -138 73 -307 149 -170 76 -309 139 -311 140 -3 3 15 44 24 54 2 2 215 -97 475 -219 464 -219 488 -228 489 -188 0 3 -223 117 -496 252 l-495 245 17 26 c11 17 23 24 33 20 9 -3 241 -123 516 -266 457 -238 500 -259 512 -243 12 16 0 25 -120 90 -72 40 -267 146 -431 236 -165 89 -301 168 -303 173 -2 6 3 19 11 30 13 18 27 11 292 -140 154 -87 288 -165 300 -172 18 -12 22 -11 31 10 11 23 -2 31 -403 271 l-414 247 15 30 16 30 37 -23 c35 -21 861 -538 1134 -710 112 -71 156 -88 146 -56 -2 5 -197 136 -432 291 -236 155 -431 287 -432 292 -2 6 3 18 11 28 12 17 31 7 269 -157 140 -97 261 -179 269 -182 8 -2 19 2 26 10 10 12 -52 60 -383 298 -218 155 -395 288 -396 294 0 6 8 18 18 28 18 15 45 -3 533 -370 282 -212 516 -387 520 -390 4 -2 12 2 18 10 9 11 -80 85 -449 376 l-461 362 21 23 22 23 396 -325 c219 -180 402 -330 408 -335 7 -5 16 -3 23 6 10 12 -28 49 -224 217 l-236 203 21 20 20 20 52 -50 c29 -28 117 -108 196 -179 126 -113 145 -126 158 -113 13 13 -35 62 -410 414 l-426 399 25 24 24 24 342 -337 c307 -302 344 -335 358 -321 18 17 28 6 -271 311 -104 105 -188 196 -188 201 0 5 8 17 19 27 17 16 25 8 181 -159 89 -96 165 -175 170 -175 4 0 13 7 20 15 11 13 9 20 -12 43 -14 15 -116 130 -227 255 -197 221 -202 229 -185 248 9 10 22 19 28 18 6 0 161 -178 345 -395 184 -216 338 -394 342 -394 3 0 11 6 17 13 7 9 -82 125 -339 441 l-348 429 25 20 c22 17 28 18 38 6 8 -8 170 -216 361 -463 306 -395 349 -446 362 -433 13 13 -21 62 -281 413 l-296 399 22 17 c13 10 25 17 28 17 3 0 93 -125 200 -279 107 -153 198 -279 201 -279 3 -1 13 5 22 12 14 11 -14 56 -254 412 l-270 400 22 18 c12 10 26 16 31 15 6 -2 192 -287 415 -633 223 -347 409 -634 414 -639 6 -6 13 -6 20 1 8 8 -58 125 -254 445 -146 238 -267 439 -269 446 -2 8 6 20 18 28 20 14 26 5 184 -266 89 -154 165 -280 169 -280 41 1 31 24 -200 440 -129 233 -235 426 -237 431 -2 4 9 14 25 22 l28 15 280 -531 c359 -684 328 -628 345 -617 12 8 -33 106 -245 529 -167 335 -256 524 -250 530 6 5 19 11 29 13 17 3 52 -65 241 -464 122 -258 224 -471 228 -474 3 -3 12 -2 21 3 12 7 -7 56 -111 287 -116 261 -124 281 -107 293 10 7 21 13 24 13 3 0 25 -46 49 -102 138 -328 164 -388 170 -388 36 1 27 28 -183 556 l-215 539 26 13 c14 8 29 10 33 5 5 -4 83 -206 173 -448 91 -241 169 -440 173 -442 5 -1 15 1 23 6 12 8 -6 67 -98 328 -61 175 -111 323 -111 329 0 14 42 27 51 16 4 -4 39 -107 79 -230 68 -211 72 -223 93 -216 12 3 23 7 25 9 1 1 -43 149 -99 329 -55 181 -99 329 -97 331 2 2 16 5 32 7 l28 3 128 -445 c70 -245 135 -470 144 -502 14 -48 19 -55 36 -51 11 3 20 7 20 10 0 2 -63 243 -141 535 -77 291 -139 531 -137 533 2 2 16 5 32 7 l28 3 129 -525 c157 -644 145 -600 169 -600 11 0 20 4 20 9 0 5 -20 97 -45 206 -95 417 -165 733 -165 747 0 17 40 32 51 20 6 -6 139 -644 139 -665 0 -7 38 -1 48 8 1 1 -36 207 -83 459 -47 251 -85 465 -85 476 0 15 7 20 29 20 36 0 19 83 166 -800 64 -382 119 -698 123 -702 4 -4 13 -4 20 1 10 6 -2 110 -62 513 -42 277 -76 510 -76 516 0 7 13 12 28 12 l28 0 38 -297 c45 -355 43 -343 67 -343 14 0 19 7 19 29 0 16 -22 226 -50 468 -27 241 -50 448 -50 459 0 16 8 23 28 27 15 3 28 4 29 3 2 -2 123 -1261 123 -1282 0 -8 10 -14 21 -14 26 0 29 -71 -26 630 -19 250 -36 473 -37 495 -3 38 -2 40 27 40 28 0 30 -3 33 -40 1 -22 13 -229 27 -460 33 -557 32 -545 57 -545 21 0 21 3 14 148 -3 81 -9 220 -13 310 l-6 162 25 0 25 0 6 -127 c4 -71 7 -178 7 -239 0 -144 6 -173 32 -166 20 5 20 12 14 486 -4 265 -9 525 -12 579 l-6 97 36 0 36 0 0 -480 0 -480 25 0 25 0 0 223 c0 122 3 279 6 348 l7 125 29 -4 28 -4 -5 -102 c-2 -55 -7 -163 -10 -238 l-6 -138 26 0 c18 0 26 6 29 23 3 12 10 144 16 292 6 149 13 291 16 318 6 44 8 47 35 47 16 0 29 -5 29 -10 0 -22 -59 -908 -65 -972 -6 -68 -6 -68 19 -68 20 0 26 5 26 23 0 29 78 953 86 1025 6 49 8 52 35 52 36 0 36 5 9 -241 -44 -419 -90 -873 -90 -900 0 -22 5 -29 20 -29 11 0 20 3 20 7 0 16 111 930 115 951 4 17 12 22 36 22 28 0 30 -2 25 -32 -7 -37 -85 -602 -89 -633 -2 -23 37 -35 45 -13 3 7 38 221 79 476 69 435 74 462 94 462 47 -1 48 -7 16 -181 -17 -90 -76 -416 -131 -724 -55 -308 -103 -572 -106 -587 -5 -24 -2 -28 15 -28 12 0 21 4 21 8 0 4 45 231 100 504 55 273 100 499 100 502 0 9 33 7 47 -2 9 -5 -6 -88 -57 -317 -38 -170 -66 -313 -64 -317 3 -4 13 -8 22 -8 14 0 37 81 132 475 l114 474 26 -6 c38 -9 39 -11 29 -46 -64 -220 -319 -1211 -315 -1222 3 -8 10 -15 15 -15 12 0 4 -24 186 610 75 261 139 483 142 493 4 15 11 17 31 12 15 -4 28 -8 30 -10 3 -3 -55 -195 -238 -779 -38 -121 -67 -223 -64 -228 19 -31 38 10 129 282 53 160 102 290 108 290 43 -1 41 -14 -47 -260 -82 -226 -94 -278 -63 -268 6 3 87 200 179 439 92 239 185 482 208 541 l41 107 27 -11 c15 -7 29 -13 30 -14 2 -1 -75 -195 -172 -431 -96 -236 -178 -436 -181 -445 -4 -11 0 -20 13 -27 18 -10 27 7 127 237 183 418 171 395 197 381 13 -6 24 -13 26 -14 2 -2 -42 -101 -98 -221 -99 -215 -104 -233 -64 -234 6 0 77 136 159 303 82 166 149 303 150 305 4 6 55 -21 55 -29 0 -5 -107 -216 -239 -469 -216 -417 -237 -461 -220 -470 10 -6 20 -7 22 -3 3 5 120 220 262 478 142 259 259 473 262 477 2 5 18 1 34 -8 l30 -15 -19 -32 c-113 -188 -555 -963 -556 -975 0 -9 6 -17 14 -19 10 -2 97 133 269 417 140 231 256 420 258 420 4 0 45 -20 51 -25 2 -1 -80 -132 -182 -291 -137 -215 -182 -292 -174 -301 6 -7 16 -13 22 -13 6 1 130 178 275 395 145 217 269 395 275 395 13 -1 46 -24 46 -33 0 -3 -198 -286 -439 -629 -350 -496 -437 -625 -425 -631 9 -5 17 -7 19 -5 1 1 139 188 305 413 166 226 305 413 309 417 3 4 16 -2 28 -12 l22 -18 -194 -251 c-107 -139 -195 -256 -195 -260 0 -5 6 -13 13 -19 10 -9 81 72 321 369 297 367 309 380 329 366 12 -8 22 -19 22 -25 0 -6 -180 -223 -399 -482 -484 -571 -439 -515 -422 -529 10 -9 93 79 396 421 210 238 388 434 395 436 6 2 18 -4 24 -12 16 -19 43 15 -372 -461 l-306 -349 32 -37 c18 -21 34 -37 37 -38 3 0 90 110 194 245 l189 245 24 -24 24 -24 -82 -119 c-45 -65 -115 -167 -155 -225 l-73 -106 51 -67 c28 -36 54 -66 57 -66 3 0 139 239 301 531 162 292 297 532 301 535 3 2 13 -4 21 -14 14 -15 -4 -61 -205 -510 l-220 -494 18 -31 c54 -93 67 -110 75 -96 4 8 67 183 139 389 73 205 136 380 140 388 6 11 13 7 30 -16 l22 -31 -85 -308 -84 -308 36 -58 c34 -55 37 -58 44 -36 4 13 46 213 93 444 48 231 89 426 91 434 4 11 9 9 21 -9 15 -21 9 -71 -105 -819 l-120 -796 45 -83 c25 -46 47 -82 48 -80 2 2 40 357 84 788 45 432 86 823 91 870 5 47 10 92 10 100 0 12 2 12 15 -1 14 -14 9 -121 -48 -1035 l-64 -1019 46 -90 c40 -79 46 -86 48 -60 2 26 15 488 38 1385 3 113 8 266 11 340 6 120 8 131 20 109 10 -21 13 -159 15 -692 1 -367 4 -667 8 -667 4 0 20 28 37 63 l31 62 -18 545 c-10 300 -23 681 -29 848 -6 187 -7 309 -1 320 14 24 16 -3 66 -753 25 -374 64 -940 85 -1258 22 -318 40 -590 40 -604 0 -37 9 -25 68 87 l50 95 -13 115 c-7 63 -52 473 -100 910 l-87 795 22 38 c12 21 24 37 25 35 2 -2 38 -223 80 -493 42 -269 79 -498 83 -508 5 -13 17 1 50 60 l43 78 -145 675 c-141 656 -144 676 -126 694 17 18 18 18 24 0 3 -11 55 -194 115 -409 254 -904 343 -1220 346 -1223 4 -5 46 68 81 140 25 51 27 62 17 90 -27 76 -321 891 -395 1097 -76 209 -81 225 -67 249 8 14 19 27 24 28 6 2 100 -196 209 -439 110 -243 222 -489 248 -546 l48 -104 50 83 c28 46 50 85 50 88 0 3 -72 132 -160 288 -88 155 -160 286 -160 289 0 11 61 85 70 85 4 0 76 -99 161 -220 84 -121 155 -220 158 -219 3 0 19 16 35 35 19 24 25 38 19 47 -6 6 -166 211 -357 454 -191 244 -349 449 -352 457 -23 60 57 -21 328 -333 172 -198 318 -360 324 -360 6 -1 19 8 29 19 18 20 18 21 -17 58 -19 20 -124 135 -232 255 -192 212 -198 219 -180 238 9 10 20 19 23 19 4 0 76 -81 161 -179 85 -99 159 -179 164 -177 5 1 14 9 20 18 7 13 -34 68 -207 276 -119 143 -217 262 -217 265 0 3 11 12 25 21 l24 16 327 -410 c266 -332 330 -408 341 -398 8 6 12 17 9 23 -2 7 -151 205 -331 440 -315 413 -326 428 -309 446 10 11 23 18 30 17 7 -2 164 -211 349 -465 186 -255 340 -463 344 -463 39 1 20 34 -249 420 -154 222 -280 407 -280 411 0 4 10 15 22 23 21 15 25 10 210 -267 103 -155 195 -283 203 -285 8 -2 18 3 21 11 3 9 -97 177 -250 419 l-255 403 22 17 c12 10 27 16 32 14 6 -1 186 -296 400 -654 215 -358 394 -651 398 -652 29 -1 -10 77 -237 476 -230 404 -254 450 -239 462 9 6 22 12 27 12 6 0 79 -126 161 -280 83 -154 156 -280 163 -280 31 0 17 40 -76 222 -55 106 -154 300 -221 430 l-121 237 30 16 31 16 53 -113 c140 -295 507 -1053 514 -1060 4 -4 13 -4 20 0 8 6 -54 154 -228 538 -217 478 -238 530 -223 542 9 6 22 12 29 12 7 0 67 -129 134 -287 67 -159 159 -375 204 -480 74 -177 94 -210 111 -184 3 5 -45 136 -107 291 -93 234 -110 283 -98 290 8 6 20 10 25 10 6 0 39 -78 74 -172 125 -339 121 -329 140 -318 17 8 2 56 -164 538 -100 291 -185 538 -189 549 -5 17 -1 23 23 31 17 6 32 8 35 4 2 -4 65 -200 140 -437 75 -236 141 -440 146 -452 12 -28 54 -21 45 8 -4 11 -48 161 -99 335 l-93 316 25 9 c14 5 28 6 32 2 4 -4 33 -107 65 -228 32 -121 59 -223 61 -227 8 -12 44 5 44 21 -1 9 -36 158 -78 331 -52 210 -75 317 -68 322 6 4 21 8 32 8 19 0 24 -10 37 -67 8 -38 59 -267 112 -510 72 -324 102 -443 112 -443 7 0 16 6 19 14 3 7 -42 253 -100 546 -58 294 -105 534 -103 535 1 1 16 5 33 8 l30 6 53 -302 c151 -868 145 -842 169 -845 19 -3 21 0 17 25 -9 46 -145 946 -145 955 0 4 13 8 30 8 35 0 28 30 75 -335 47 -362 43 -345 65 -345 10 0 21 3 23 8 2 4 -1 59 -9 122 -7 63 -29 266 -48 450 -20 184 -38 347 -41 362 -4 24 -1 27 28 30 18 2 33 3 35 2 1 -1 25 -255 52 -565z"/>
            <path d="M6391 2404 c0 -11 3 -14 6 -6 3 7 2 16 -1 19 -3 4 -6 -2 -5 -13z"/>
            </g>
            </svg>